<svg version="1.0" preserveAspectRatio="xMidYMid meet" viewBox="48.75 122.249997066 286.5 132.749996814" zoomAndPan="magnify" xmlns:xlink="http://www.w3.org/1999/xlink" xmlns="http://www.w3.org/2000/svg" style="max-height: 500px" width="286.5" height="132.749996814"><defs><g/><clipPath id="f5e81871d7"><path clip-rule="nonzero" d="M 0 0.480469 L 274 0.480469 L 274 266.398438 L 0 266.398438 Z M 0 0.480469"/></clipPath><clipPath id="1dde01b8df"><path clip-rule="nonzero" d="M 185.410156 0.695312 L 273.25 170.800781 L 87.546875 266.691406 L -0.289062 96.585938 Z M 185.410156 0.695312"/></clipPath><clipPath id="534cb92775"><path clip-rule="nonzero" d="M 49 68 L 224 68 L 224 199 L 49 199 Z M 49 68"/></clipPath><clipPath id="0afcb6e6a4"><path clip-rule="nonzero" d="M 185.410156 0.695312 L 273.25 170.800781 L 87.546875 266.691406 L -0.289062 96.585938 Z M 185.410156 0.695312"/></clipPath><clipPath id="af7f0798e8"><path clip-rule="nonzero" d="M 273.125 170.558594 L 185.285156 0.449219 L -0.414062 96.339844 L 87.421875 266.449219 Z M 273.125 170.558594"/></clipPath><clipPath id="e47023778a"><rect height="267" y="0" width="274" x="0"/></clipPath><clipPath id="b6bb16c2f5"><rect height="267" y="0" width="338" x="0"/></clipPath></defs><g transform="matrix(1, 0, 0, 1, 0, 54)"><g clip-path="url(#b6bb16c2f5)"><g clip-path="url(#f5e81871d7)"><g clip-path="url(#1dde01b8df)"><g transform="matrix(1, 0, 0, 1, 0, 0)"><g clip-path="url(#e47023778a)"><g clip-path="url(#534cb92775)"><g clip-path="url(#0afcb6e6a4)"><g clip-path="url(#af7f0798e8)"><path fill-rule="nonzero" fill-opacity="1" d="M 223.203125 134.863281 L 132.496094 181.703125 L 157.453125 198.253906 L 186.835938 183.082031 L 223.414062 196.226562 Z M 223.203125 134.863281 L 186.625 121.71875 L 157.242188 136.890625 L 132.289062 120.335938 L 222.996094 73.5 Z M 49.710938 70.765625 L 86.285156 83.910156 L 115.667969 68.738281 L 140.625 85.292969 L 49.917969 132.132812 Z M 49.917969 132.132812 L 86.496094 145.277344 L 115.878906 130.105469 L 140.832031 146.65625 L 50.125 193.496094 Z M 49.917969 132.132812" fill="#497e00"/></g></g></g></g></g></g></g><g fill-opacity="1" fill="#000000"><g transform="translate(230.360644, 184.9196)"><g><path d="M 3.15625 0 L 3.15625 -97.09375 L 19.0625 -97.09375 L 19.0625 -56.4375 L 33.75 -56.4375 L 33.75 -97.09375 L 49.640625 -97.09375 L 49.640625 0 L 33.75 0 L 33.75 -40.65625 L 19.0625 -40.65625 L 19.0625 0 Z M 3.15625 0"/></g></g></g><g fill-opacity="1" fill="#000000"><g transform="translate(283.158709, 184.9196)"><g><path d="M 3.15625 0 L 15.90625 -97.09375 L 37.75 -97.09375 L 50.484375 0 L 34.59375 0 L 32.765625 -17.71875 L 20.875 -17.71875 L 19.0625 0 Z M 22.09375 -33.5 L 31.4375 -33.5 L 26.828125 -77.796875 Z M 22.09375 -33.5"/></g></g></g></g></g></svg>