<?xml version="1.0" standalone="no"?>
<!DOCTYPE svg PUBLIC "-//W3C//DTD SVG 20010904//EN"
 "http://www.w3.org/TR/2001/REC-SVG-20010904/DTD/svg10.dtd">
<svg version="1.0" xmlns="http://www.w3.org/2000/svg"
 width="225.000000pt" height="225.000000pt" viewBox="0 0 225.000000 225.000000"
 preserveAspectRatio="xMidYMid meet">
<metadata>
Created by potrace 1.14, written by Peter Selinger 2001-2017
</metadata>
<g transform="translate(0.000000,225.000000) scale(0.100000,-0.100000)"
fill="#000000" stroke="none">
<path d="M660 1368 c-156 -261 -156 -231 1 -495 63 -106 120 -195 126 -197 25
-10 39 5 101 112 74 128 77 149 26 241 -43 78 -43 123 0 188 15 23 30 59 33
80 5 42 -4 64 -85 203 -61 104 -61 104 -202 -132z"/>
<path d="M1008 842 c-16 -26 -16 -28 1 -28 13 0 17 6 14 21 -4 16 -3 17 6 5
12 -17 15 -1 3 17 -6 9 -13 4 -24 -15z"/>
<path d="M1520 855 c0 -6 5 -16 12 -23 8 -8 8 -15 -2 -27 -11 -13 -15 -13 -21
-3 -6 9 -9 7 -9 -7 -1 -27 -23 -55 -44 -55 -13 0 -16 6 -12 23 3 12 3 16 0 10
-4 -10 -55 -13 -205 -13 -168 0 -201 2 -205 15 -8 20 -24 19 -24 -1 0 -8 5
-12 10 -9 13 8 13 -5 0 -25 -6 -9 -10 -10 -10 -3 0 6 -5 24 -11 39 l-10 28
-20 -30 c-11 -16 -24 -38 -30 -49 -5 -11 -14 -27 -21 -37 -9 -13 -9 -20 1 -32
12 -14 45 -16 245 -15 127 1 242 4 256 8 17 5 25 14 25 28 0 12 4 25 8 29 4 5
5 1 1 -9 -3 -9 -2 -17 4 -17 12 0 105 160 98 168 -3 3 -6 -1 -6 -8 0 -9 -5 -7
-15 6 -8 10 -15 14 -15 9z m-524 -122 c-3 -4 -6 -1 -6 6 0 7 -4 9 -10 6 -11
-7 -14 8 -3 19 4 3 11 -1 16 -9 5 -9 6 -19 3 -22z m364 7 c0 -5 -18 -10 -40
-10 -22 0 -40 5 -40 10 0 6 18 10 40 10 22 0 40 -4 40 -10z m120 -20 c0 -5 -2
-10 -4 -10 -3 0 -8 5 -11 10 -3 6 -1 10 4 10 6 0 11 -4 11 -10z"/>
<path d="M1460 792 c0 -25 16 -37 23 -18 3 8 -1 20 -9 26 -11 10 -14 9 -14 -8z"/>
</g>
</svg>
